<svg width="897" height="435" viewBox="0 0 897 435" fill="none" xmlns="http://www.w3.org/2000/svg">
<path d="M571.412 215.943C498.417 248.513 411.506 262.8 368.918 238.772C326.639 214.686 328.993 152.226 358.174 106.312C387.664 60.339 444.372 31.0708 516.695 29.7523C588.626 28.2752 676.253 54.9647 690.332 93.6559C704.102 132.405 644.716 183.315 571.412 215.943Z" fill="#F9EDE7"/>
<path d="M479.431 221.58C515.15 166.216 576.749 120.79 631.093 124.495C685.223 128.367 731.885 181.537 743.217 231.194C754.335 281.018 729.672 327.348 670.183 356.303C611.145 385.24 517.042 396.654 475.136 369.701C433.444 342.581 443.498 277.111 479.431 221.58Z" fill="#ECCCBC"/>
<path d="M461.405 191.188C497.125 135.825 558.724 90.3987 613.068 94.1033C667.198 97.9754 713.86 151.146 725.191 200.802C736.31 250.627 711.647 296.956 652.158 325.912C593.119 354.849 499.016 366.263 457.111 339.31C415.418 312.189 425.472 246.72 461.405 191.188Z" fill="#ECCCBC"/>
<path d="M148.554 160.794C175.266 99.7657 237.865 54.9692 307.556 68.3238C377.034 81.8461 453.389 153.687 484.071 215.512C514.541 277.504 498.775 329.427 433.391 354.676C368.57 379.977 253.782 378.385 192.08 338.984C130.592 299.416 121.629 221.989 148.554 160.794Z" fill="#CFD1C7"/>
<path d="M5.86063 264.9C4.30063 264.9 3.04063 264.66 2.08063 264.18C1.12063 263.82 0.640625 263.28 0.640625 262.56C0.640625 261.72 1.12063 261 2.08063 260.4C3.16063 259.68 4.66062 259.02 6.58063 258.42C9.70063 257.46 12.5806 256.02 15.2206 254.1C17.8606 252.18 20.1406 249 22.0606 244.56C25.4206 236.88 28.4806 229.68 31.2406 222.96C34.1206 216.24 36.8206 209.64 39.3406 203.16C41.8606 196.68 44.4406 189.96 47.0806 183C49.8406 175.92 52.7206 168.24 55.7206 159.96C56.3206 158.28 56.8606 156.6 57.3406 154.92C57.8206 153.24 58.1206 151.44 58.2406 149.52C59.3206 149.16 60.4006 148.8 61.4806 148.44C62.5606 148.08 63.6406 147.54 64.7206 146.82C65.8006 146.1 66.5206 145.02 66.8806 143.58C67.3606 142.14 67.7806 141.18 68.1406 140.7C68.2606 140.58 68.3806 140.52 68.5006 140.52C68.7406 140.52 68.9206 140.64 69.0406 140.88C69.2806 141.36 69.4606 141.96 69.5806 142.68C69.8206 143.4 70.0606 144.12 70.3006 144.84C73.1806 153.96 76.1806 163.26 79.3006 172.74C82.4206 182.22 85.4206 191.4 88.3006 200.28C91.3006 209.04 94.0006 216.96 96.4006 224.04C98.9206 231 100.901 236.64 102.341 240.96C104.021 245.76 105.821 249.36 107.741 251.76C109.661 254.16 111.641 255.84 113.681 256.8C115.841 257.76 118.121 258.48 120.521 258.96C122.561 259.32 124.061 259.92 125.021 260.76C125.981 261.48 126.461 262.26 126.461 263.1C126.461 263.82 125.981 264.3 125.021 264.54C124.061 264.78 122.801 264.9 121.241 264.9C119.561 264.9 117.281 264.78 114.401 264.54C111.521 264.42 108.461 264.24 105.221 264C101.981 263.88 98.9806 263.82 96.2206 263.82C93.9406 263.82 91.6006 263.82 89.2006 263.82C86.8006 263.82 84.5806 263.88 82.5406 264C80.5006 264 78.7606 264 77.3206 264C75.7606 264 74.5006 263.82 73.5406 263.46C72.5806 263.1 72.1006 262.56 72.1006 261.84C72.1006 261 72.7006 260.28 73.9006 259.68C75.1006 259.08 76.4806 258.66 78.0406 258.42C82.0006 257.82 84.8206 256.8 86.5006 255.36C88.1806 253.92 89.0206 252.24 89.0206 250.32C89.0206 248.52 88.6006 245.94 87.7606 242.58C87.0406 239.1 86.1406 235.44 85.0606 231.6C83.9806 227.64 82.9606 224.16 82.0006 221.16C81.7606 220.2 81.2806 219.66 80.5606 219.54C79.9606 219.3 78.8206 219.18 77.1406 219.18H43.1206C42.6406 219.18 42.1006 219.42 41.5006 219.9C41.0206 220.26 40.5406 221.1 40.0606 222.42C39.7006 223.62 39.1006 225.54 38.2606 228.18C37.4206 230.7 36.5806 233.4 35.7406 236.28C34.9006 239.16 34.1806 241.74 33.5806 244.02C32.9806 246.3 32.6806 247.74 32.6806 248.34C32.6806 250.98 33.7006 253.2 35.7406 255C37.7806 256.68 40.2406 257.88 43.1206 258.6C47.0806 259.68 49.0606 260.88 49.0606 262.2C49.0606 262.92 48.5806 263.46 47.6206 263.82C46.6606 264.06 45.4006 264.18 43.8406 264.18C42.2806 264.18 40.0006 264.12 37.0006 264C34.0006 263.88 30.8206 263.82 27.4606 263.82C23.5006 263.82 19.6606 264 15.9406 264.36C12.2206 264.72 8.86063 264.9 5.86063 264.9ZM47.9806 213.24H75.8806C77.5606 213.24 78.4006 212.94 78.4006 212.34C78.4006 212.1 78.3406 211.86 78.2206 211.62C78.2206 211.26 78.1606 210.9 78.0406 210.54L64.0006 166.62C63.2806 164.46 62.7406 163.38 62.3806 163.38C62.1406 163.38 61.6606 164.4 60.9406 166.44L44.5606 210.54C44.3206 211.26 44.2006 211.74 44.2006 211.98C44.2006 212.58 44.5006 212.94 45.1006 213.06C45.8206 213.18 46.7806 213.24 47.9806 213.24Z" fill="#5E652D"/>
<path d="M144.35 264.54C143.15 264.54 142.25 264.36 141.65 264C141.05 263.76 140.75 263.28 140.75 262.56C140.75 261.6 141.11 261 141.83 260.76C142.55 260.4 143.57 260.04 144.89 259.68C147.17 259.08 148.85 258.24 149.93 257.16C151.13 255.96 151.73 254.52 151.73 252.84V214.14C151.73 210.9 151.25 208.08 150.29 205.68C149.33 203.28 147.35 201.78 144.35 201.18C143.87 201.06 143.45 200.76 143.09 200.28C142.73 199.8 142.55 199.32 142.55 198.84C142.55 197.64 143.09 196.92 144.17 196.68C147.29 195.72 150.53 194.34 153.89 192.54C157.37 190.62 160.07 189.06 161.99 187.86C162.71 187.38 163.25 187.08 163.61 186.96C164.09 186.72 164.45 186.6 164.69 186.6C165.29 186.6 165.59 187.02 165.59 187.86C165.59 188.22 165.53 189.12 165.41 190.56C165.41 192 165.35 193.68 165.23 195.6C165.23 197.52 165.17 199.44 165.05 201.36C165.05 201.6 165.17 201.72 165.41 201.72C167.33 199.32 169.43 197.22 171.71 195.42C174.11 193.62 176.51 192.18 178.91 191.1C181.43 190.02 183.83 189.48 186.11 189.48C188.63 189.48 190.67 190.02 192.23 191.1C193.91 192.18 194.75 193.56 194.75 195.24C194.75 196.44 194.39 197.76 193.67 199.2C193.07 200.64 192.23 201.9 191.15 202.98C190.07 204.06 188.93 204.6 187.73 204.6C187.01 204.6 186.23 204.48 185.39 204.24C184.55 203.88 183.65 203.46 182.69 202.98C181.73 202.62 180.77 202.26 179.81 201.9C178.85 201.54 177.89 201.36 176.93 201.36C174.05 201.36 171.23 202.38 168.47 204.42C165.83 206.46 164.51 210.48 164.51 216.48V252.84C164.51 254.4 165.35 255.72 167.03 256.8C168.71 257.76 171.05 258.72 174.05 259.68C175.37 260.04 176.39 260.4 177.11 260.76C177.83 261.12 178.19 261.72 178.19 262.56C178.19 263.88 176.99 264.54 174.59 264.54C170.99 264.54 168.23 264.36 166.31 264C164.51 263.76 162.05 263.64 158.93 263.64C156.89 263.64 155.21 263.7 153.89 263.82C152.69 263.94 151.37 264.06 149.93 264.18C148.61 264.42 146.75 264.54 144.35 264.54Z" fill="#5E652D"/>
<path d="M239.567 266.52C233.687 266.52 229.067 264.72 225.707 261.12C222.467 257.52 220.847 252.18 220.847 245.1V203.34C220.847 202.38 220.487 201.72 219.767 201.36C219.047 200.88 217.487 200.64 215.087 200.64H214.007C213.407 200.64 212.867 200.28 212.387 199.56C212.027 198.72 211.847 197.88 211.847 197.04C211.847 196.8 212.027 196.44 212.387 195.96C212.747 195.48 212.987 195.18 213.107 195.06C215.507 193.38 217.667 191.7 219.587 190.02C221.627 188.34 223.427 186.72 224.987 185.16C226.667 183.48 228.047 181.98 229.127 180.66C229.727 180.06 230.207 179.58 230.567 179.22C231.047 178.74 231.587 178.5 232.187 178.5C232.787 178.5 233.327 178.62 233.807 178.86C234.407 179.1 234.647 179.64 234.527 180.48L233.627 188.58C233.507 189.9 233.807 190.8 234.527 191.28C235.247 191.76 236.387 192 237.947 192H258.467C258.947 192 259.367 192.42 259.727 193.26C260.087 193.98 260.267 194.88 260.267 195.96C260.267 197.04 260.087 198.12 259.727 199.2C259.367 200.16 258.947 200.64 258.467 200.64H240.647C237.647 200.64 235.667 200.88 234.707 201.36C233.867 201.84 233.447 203.28 233.447 205.68V241.14C233.447 245.94 234.467 249.72 236.507 252.48C238.547 255.24 241.487 256.62 245.327 256.62C248.807 256.62 251.507 256.38 253.427 255.9C255.347 255.3 257.087 254.46 258.647 253.38C258.887 253.14 259.127 253.02 259.367 253.02C259.847 253.02 260.147 253.32 260.267 253.92C260.507 254.4 260.627 254.94 260.627 255.54C260.627 256.14 259.607 257.34 257.567 259.14C255.647 260.94 253.067 262.62 249.827 264.18C246.707 265.74 243.287 266.52 239.567 266.52Z" fill="#5E652D"/>
<path d="M329.863 264.9C328.303 264.9 327.043 264.72 326.083 264.36C325.123 264.12 324.643 263.64 324.643 262.92C324.643 261.48 326.623 260.4 330.583 259.68C335.143 258.84 338.503 257.46 340.663 255.54C342.823 253.62 343.903 250.5 343.903 246.18V165.18C343.903 160.86 343.003 157.8 341.203 156C339.523 154.2 336.403 152.88 331.843 152.04C329.803 151.68 328.303 151.2 327.343 150.6C326.383 150 325.903 149.28 325.903 148.44C325.903 147.72 326.383 147.24 327.343 147C328.303 146.64 329.563 146.46 331.123 146.46C335.683 146.46 339.523 146.52 342.643 146.64C345.883 146.76 349.003 146.88 352.003 147C355.123 147 358.783 147 362.983 147C366.943 147 371.083 147 375.403 147C379.843 146.88 383.923 146.82 387.643 146.82C391.723 146.7 395.143 146.64 397.903 146.64C400.783 146.52 402.463 146.46 402.943 146.46C403.543 146.46 404.203 146.58 404.923 146.82C405.643 147.06 406.063 147.48 406.183 148.08C406.783 151.44 407.383 154.8 407.983 158.16C408.583 161.4 408.883 164.22 408.883 166.62C408.883 167.7 408.583 168.42 407.983 168.78C407.503 169.14 406.963 169.32 406.363 169.32C405.763 169.32 405.343 169.2 405.103 168.96C404.863 168.6 404.623 168.12 404.383 167.52C403.783 165.48 403.183 163.56 402.583 161.76C401.983 159.84 401.263 158.46 400.423 157.62C398.743 155.7 396.883 154.44 394.843 153.84C392.803 153.12 390.643 152.76 388.363 152.76H364.783C363.823 152.76 362.503 153.3 360.823 154.38C359.143 155.46 358.303 156.84 358.303 158.52V196.68C358.303 197.76 358.603 198.72 359.203 199.56C359.923 200.28 360.703 200.64 361.543 200.64H379.363C382.843 200.64 385.243 200.04 386.563 198.84C387.883 197.52 388.963 195.18 389.803 191.82C390.523 189.18 391.603 187.86 393.043 187.86C393.523 187.86 394.003 188.1 394.483 188.58C395.083 189.06 395.383 189.78 395.383 190.74C395.383 191.22 395.323 192.3 395.203 193.98C395.203 195.66 395.143 197.4 395.023 199.2C394.903 201 394.843 202.38 394.843 203.34C394.843 204.54 394.843 206.16 394.843 208.2C394.963 210.12 395.023 211.98 395.023 213.78C395.143 215.58 395.203 216.72 395.203 217.2C395.203 218.04 395.083 218.76 394.843 219.36C394.723 219.96 394.303 220.26 393.583 220.26C391.783 220.26 390.403 218.34 389.443 214.5C388.723 211.74 387.763 209.7 386.563 208.38C385.363 207.06 383.563 206.4 381.163 206.4H364.423C362.383 206.4 360.823 206.7 359.743 207.3C358.783 207.78 358.303 209.04 358.303 211.08V245.64C358.303 250.2 359.263 253.38 361.183 255.18C363.103 256.86 366.103 257.7 370.183 257.7H383.503C387.343 257.7 390.523 257.52 393.043 257.16C395.683 256.68 397.963 255.84 399.883 254.64C401.803 253.32 403.483 251.58 404.923 249.42C406.483 247.26 408.223 244.38 410.143 240.78C410.503 240.06 410.923 239.46 411.403 238.98C411.883 238.5 412.423 238.32 413.023 238.44C413.623 238.56 414.103 238.86 414.463 239.34C414.823 239.7 415.003 240.24 415.003 240.96C415.003 242.04 414.703 243.96 414.103 246.72C413.503 249.36 412.723 252.12 411.763 255C410.923 257.88 410.143 260.16 409.423 261.84C409.063 262.68 408.703 263.4 408.343 264C408.103 264.6 407.623 264.9 406.903 264.9C401.143 264.9 395.803 264.84 390.883 264.72C385.963 264.6 381.283 264.48 376.843 264.36C372.403 264.24 368.023 264.12 363.703 264C359.503 263.88 355.123 263.82 350.563 263.82C347.923 263.82 345.643 263.88 343.723 264C341.803 264.24 339.823 264.42 337.783 264.54C335.743 264.78 333.103 264.9 329.863 264.9Z" fill="#89422E"/>
<path d="M455.405 266.52C451.685 266.52 448.205 265.92 444.965 264.72C441.725 263.64 438.965 262.08 436.685 260.04C436.085 258.72 435.605 256.5 435.245 253.38C435.005 250.26 434.825 247.68 434.705 245.64C434.705 244.56 435.485 244.02 437.045 244.02C437.525 244.02 437.945 244.14 438.305 244.38C438.785 244.5 439.085 244.8 439.205 245.28C440.765 251.16 443.225 255.36 446.585 257.88C450.065 260.4 453.545 261.66 457.025 261.66C460.505 261.66 463.445 260.52 465.845 258.24C468.365 255.84 469.625 252.9 469.625 249.42C469.625 246.18 468.545 243.42 466.385 241.14C464.225 238.74 460.445 235.86 455.045 232.5C450.965 229.98 447.665 227.58 445.145 225.3C442.625 223.02 440.765 220.68 439.565 218.28C438.485 215.88 437.945 213.18 437.945 210.18C437.945 206.34 438.845 202.86 440.645 199.74C442.445 196.62 445.145 194.16 448.745 192.36C452.345 190.44 456.845 189.48 462.245 189.48C465.845 189.48 468.845 189.84 471.245 190.56C473.645 191.28 475.445 192.06 476.645 192.9C477.605 194.22 478.385 196.32 478.985 199.2C479.705 201.96 480.065 204.6 480.065 207.12C480.065 207.96 479.465 208.38 478.265 208.38C477.545 208.38 476.825 208.26 476.105 208.02C475.505 207.66 475.085 207.24 474.845 206.76C473.285 202.8 471.305 199.8 468.905 197.76C466.625 195.6 463.745 194.52 460.265 194.52C457.265 194.52 454.565 195.42 452.165 197.22C449.885 199.02 448.745 201.66 448.745 205.14C448.745 207.9 449.585 210.36 451.265 212.52C453.065 214.68 456.365 217.14 461.165 219.9C468.125 223.86 473.285 227.58 476.645 231.06C480.125 234.42 481.865 238.92 481.865 244.56C481.865 251.04 479.405 256.32 474.485 260.4C469.565 264.48 463.205 266.52 455.405 266.52Z" fill="#89422E"/>
<path d="M523.489 266.52C519.769 266.52 516.289 265.92 513.049 264.72C509.809 263.64 507.049 262.08 504.769 260.04C504.169 258.72 503.689 256.5 503.329 253.38C503.089 250.26 502.909 247.68 502.789 245.64C502.789 244.56 503.569 244.02 505.129 244.02C505.609 244.02 506.029 244.14 506.389 244.38C506.869 244.5 507.169 244.8 507.289 245.28C508.849 251.16 511.309 255.36 514.669 257.88C518.149 260.4 521.629 261.66 525.109 261.66C528.589 261.66 531.529 260.52 533.929 258.24C536.449 255.84 537.709 252.9 537.709 249.42C537.709 246.18 536.629 243.42 534.469 241.14C532.309 238.74 528.529 235.86 523.129 232.5C519.049 229.98 515.749 227.58 513.229 225.3C510.709 223.02 508.849 220.68 507.649 218.28C506.569 215.88 506.029 213.18 506.029 210.18C506.029 206.34 506.929 202.86 508.729 199.74C510.529 196.62 513.229 194.16 516.829 192.36C520.429 190.44 524.929 189.48 530.329 189.48C533.929 189.48 536.929 189.84 539.329 190.56C541.729 191.28 543.529 192.06 544.729 192.9C545.689 194.22 546.469 196.32 547.069 199.2C547.789 201.96 548.149 204.6 548.149 207.12C548.149 207.96 547.549 208.38 546.349 208.38C545.629 208.38 544.909 208.26 544.189 208.02C543.589 207.66 543.169 207.24 542.929 206.76C541.369 202.8 539.389 199.8 536.989 197.76C534.709 195.6 531.829 194.52 528.349 194.52C525.349 194.52 522.649 195.42 520.249 197.22C517.969 199.02 516.829 201.66 516.829 205.14C516.829 207.9 517.669 210.36 519.349 212.52C521.149 214.68 524.449 217.14 529.249 219.9C536.209 223.86 541.369 227.58 544.729 231.06C548.209 234.42 549.949 238.92 549.949 244.56C549.949 251.04 547.489 256.32 542.569 260.4C537.649 264.48 531.289 266.52 523.489 266.52Z" fill="#89422E"/>
<path d="M603.992 266.7C597.392 266.7 591.632 265.08 586.712 261.84C581.792 258.6 577.952 254.04 575.192 248.16C572.432 242.16 571.052 235.26 571.052 227.46C571.052 220.5 572.612 214.2 575.732 208.56C578.972 202.8 583.232 198.18 588.512 194.7C593.792 191.22 599.552 189.48 605.792 189.48C610.592 189.48 614.852 190.44 618.572 192.36C622.292 194.28 625.172 196.98 627.212 200.46C629.372 203.82 630.452 207.72 630.452 212.16C630.452 215.88 628.652 217.74 625.052 217.74H587.072C585.392 217.74 584.192 218.22 583.472 219.18C582.872 220.02 582.572 221.76 582.572 224.4C582.572 230.16 583.832 235.44 586.352 240.24C588.872 244.92 592.232 248.7 596.432 251.58C600.632 254.34 605.252 255.72 610.292 255.72C613.892 255.72 617.132 255.06 620.012 253.74C623.012 252.3 625.652 250.26 627.932 247.62C628.412 247.02 628.772 246.66 629.012 246.54C629.252 246.3 629.552 246.18 629.912 246.18C630.872 246.18 631.352 246.78 631.352 247.98C631.352 250.26 630.272 252.78 628.112 255.54C626.312 257.82 624.152 259.8 621.632 261.48C619.112 263.16 616.352 264.42 613.352 265.26C610.352 266.22 607.232 266.7 603.992 266.7ZM587.432 212.16H603.812C606.692 212.16 609.152 212.1 611.192 211.98C613.232 211.86 615.212 211.62 617.132 211.26C617.732 211.14 618.092 210.78 618.212 210.18C618.452 209.46 618.572 208.5 618.572 207.3C618.572 203.82 617.012 200.88 613.892 198.48C610.892 195.96 607.292 194.7 603.092 194.7C600.332 194.7 597.572 195.54 594.812 197.22C592.052 198.78 589.772 200.76 587.972 203.16C586.172 205.56 585.272 207.96 585.272 210.36C585.272 211.56 585.992 212.16 587.432 212.16Z" fill="#89422E"/>
<path d="M653.609 264.54C652.529 264.54 651.629 264.36 650.909 264C650.309 263.76 650.009 263.28 650.009 262.56C650.009 261.6 650.369 261 651.089 260.76C651.809 260.4 652.829 260.04 654.149 259.68C655.949 259.2 657.689 258.54 659.369 257.7C661.049 256.86 661.889 255.24 661.889 252.84V214.14C661.889 210.9 661.529 208.14 660.809 205.86C660.209 203.58 658.349 202.02 655.229 201.18C654.749 200.94 654.329 200.7 653.969 200.46C653.609 200.1 653.429 199.56 653.429 198.84C653.429 197.52 653.969 196.8 655.049 196.68C659.249 195.6 662.669 194.28 665.309 192.72C667.949 191.16 670.529 189.42 673.049 187.5C673.409 187.26 673.709 187.08 673.949 186.96C674.309 186.72 674.669 186.6 675.029 186.6C675.269 186.6 675.449 186.72 675.569 186.96C675.809 187.2 675.929 187.5 675.929 187.86C675.929 188.7 675.749 190.44 675.389 193.08C675.149 195.6 675.029 197.7 675.029 199.38C675.029 199.86 675.029 200.34 675.029 200.82C675.149 201.18 675.269 201.42 675.389 201.54C679.589 197.58 684.029 194.58 688.709 192.54C693.509 190.5 698.729 189.48 704.369 189.48C710.249 189.48 715.109 191.88 718.949 196.68C722.789 201.48 724.709 207.42 724.709 214.5V252.84C724.709 255.24 725.549 256.86 727.229 257.7C728.909 258.42 730.649 259.08 732.449 259.68C733.409 260.04 734.309 260.46 735.149 260.94C736.109 261.3 736.589 261.96 736.589 262.92C736.589 263.64 736.169 264.06 735.329 264.18C734.489 264.42 733.709 264.54 732.989 264.54C730.589 264.54 728.729 264.42 727.409 264.18C726.089 264.06 724.829 263.94 723.629 263.82C722.429 263.7 720.749 263.64 718.589 263.64C716.549 263.64 714.869 263.7 713.549 263.82C712.229 263.94 710.849 264.06 709.409 264.18C708.089 264.42 706.229 264.54 703.829 264.54C703.229 264.54 702.449 264.42 701.489 264.18C700.649 264.06 700.229 263.64 700.229 262.92C700.229 261.96 700.649 261.3 701.489 260.94C702.449 260.46 703.409 260.04 704.369 259.68C706.169 259.08 707.909 258.42 709.589 257.7C711.269 256.86 712.109 255.24 712.109 252.84V215.04C712.109 209.76 710.609 205.68 707.609 202.8C704.729 199.8 700.829 198.24 695.909 198.12C691.589 198.12 687.809 198.84 684.569 200.28C681.329 201.6 678.449 203.28 675.929 205.32C675.449 205.8 675.089 206.46 674.849 207.3C674.609 208.02 674.489 208.74 674.489 209.46V252.84C674.489 255.24 675.329 256.86 677.009 257.7C678.689 258.54 680.429 259.2 682.229 259.68C684.989 260.4 686.369 261.36 686.369 262.56C686.369 263.28 686.069 263.76 685.469 264C684.869 264.36 683.969 264.54 682.769 264.54C680.369 264.54 678.449 264.42 677.009 264.18C675.689 264.06 674.429 263.94 673.229 263.82C672.029 263.7 670.349 263.64 668.189 263.64C666.149 263.64 664.469 263.7 663.149 263.82C661.949 263.94 660.629 264.06 659.189 264.18C657.869 264.42 656.009 264.54 653.609 264.54Z" fill="#89422E"/>
<path d="M789.027 266.7C783.027 266.7 777.567 265.2 772.647 262.2C767.847 259.08 764.007 254.88 761.127 249.6C758.367 244.2 756.987 238.2 756.987 231.6C756.987 223.8 758.667 216.72 762.027 210.36C765.507 204 770.127 198.96 775.887 195.24C781.647 191.4 788.007 189.48 794.967 189.48C802.767 189.48 809.607 191.58 815.487 195.78C816.927 196.86 817.647 198 817.647 199.2C817.647 200.16 817.227 201.24 816.387 202.44C815.547 203.64 814.527 204.66 813.327 205.5C812.127 206.22 810.987 206.58 809.907 206.58C809.307 206.58 808.707 206.4 808.107 206.04C807.507 205.56 806.847 205.08 806.127 204.6C803.487 202.56 800.547 200.64 797.307 198.84C794.067 197.04 791.367 196.14 789.207 196.14C783.327 196.14 778.527 198.9 774.807 204.42C771.207 209.82 769.407 216.96 769.407 225.84C769.407 231.48 770.607 236.58 773.007 241.14C775.527 245.7 778.827 249.3 782.907 251.94C787.107 254.58 791.727 255.9 796.767 255.9C800.247 255.9 803.247 255.36 805.767 254.28C808.287 253.08 810.987 251.04 813.867 248.16C814.107 247.92 814.407 247.74 814.767 247.62C815.127 247.38 815.427 247.26 815.667 247.26C816.987 247.26 817.647 248.1 817.647 249.78C817.647 250.5 817.407 251.34 816.927 252.3C816.567 253.14 815.907 254.16 814.947 255.36C813.027 257.76 810.747 259.86 808.107 261.66C805.467 263.34 802.527 264.6 799.287 265.44C796.167 266.28 792.747 266.7 789.027 266.7Z" fill="#89422E"/>
<path d="M868.712 266.7C862.112 266.7 856.352 265.08 851.432 261.84C846.512 258.6 842.672 254.04 839.912 248.16C837.152 242.16 835.772 235.26 835.772 227.46C835.772 220.5 837.332 214.2 840.452 208.56C843.692 202.8 847.952 198.18 853.232 194.7C858.512 191.22 864.272 189.48 870.512 189.48C875.312 189.48 879.572 190.44 883.292 192.36C887.012 194.28 889.892 196.98 891.932 200.46C894.092 203.82 895.172 207.72 895.172 212.16C895.172 215.88 893.372 217.74 889.772 217.74H851.792C850.112 217.74 848.912 218.22 848.192 219.18C847.592 220.02 847.292 221.76 847.292 224.4C847.292 230.16 848.552 235.44 851.072 240.24C853.592 244.92 856.952 248.7 861.152 251.58C865.352 254.34 869.972 255.72 875.012 255.72C878.612 255.72 881.852 255.06 884.732 253.74C887.732 252.3 890.372 250.26 892.652 247.62C893.132 247.02 893.492 246.66 893.732 246.54C893.972 246.3 894.272 246.18 894.632 246.18C895.592 246.18 896.072 246.78 896.072 247.98C896.072 250.26 894.992 252.78 892.832 255.54C891.032 257.82 888.872 259.8 886.352 261.48C883.832 263.16 881.072 264.42 878.072 265.26C875.072 266.22 871.952 266.7 868.712 266.7ZM852.152 212.16H868.532C871.412 212.16 873.872 212.1 875.912 211.98C877.952 211.86 879.932 211.62 881.852 211.26C882.452 211.14 882.812 210.78 882.932 210.18C883.172 209.46 883.292 208.5 883.292 207.3C883.292 203.82 881.732 200.88 878.612 198.48C875.612 195.96 872.012 194.7 867.812 194.7C865.052 194.7 862.292 195.54 859.532 197.22C856.772 198.78 854.492 200.76 852.692 203.16C850.892 205.56 849.992 207.96 849.992 210.36C849.992 211.56 850.712 212.16 852.152 212.16Z" fill="#89422E"/>
</svg>
